inDegrees=no
DataType=double
version=3
OpenSimVersion=4.4-2022-10-11-798caa840
endheader
time	elv_angle	shoulder_elv	shoulder_rot	elbow_flexion	pro_sup	deviation	flexion
2.4020851434	0.0000000000	0.7853981634	0.9424777961	1.3089969390	0.0000000000	0.0000000000	0.0000000000
2.4062554301	0.0000000000	0.7853981634	0.9424777961	1.3089969390	0.0000000000	0.0000000000	0.0000000000
2.4104257168	0.0000000000	0.7853981634	0.9424777961	1.3089969390	0.0000000000	0.0000000000	0.0000000000
2.4145960035	0.0000000000	0.7853981634	0.9424777961	1.3089969390	0.0000000000	0.0000000000	0.0000000000
2.4187662902	0.0000000000	0.7853981634	0.9424777961	1.3089969390	0.0000000000	0.0000000000	0.0000000000
2.4229365769	0.0000000000	0.7853981634	0.9424777961	1.3089969390	0.0000000000	0.0000000000	0.0000000000
2.4271068636	0.0000000000	0.7853981634	0.9424777961	1.3089969390	0.0000000000	0.0000000000	0.0000000000
2.4312771503	0.0000000000	0.7853981634	0.9424777961	1.3089969390	0.0000000000	0.0000000000	0.0000000000
2.4354474370	0.0000000000	0.7853981634	0.9424777961	1.3089969390	0.0000000000	0.0000000000	0.0000000000
2.4396177237	0.0000000000	0.7853981634	0.9424777961	1.3089969390	0.0000000000	0.0000000000	0.0000000000
2.4437880104	0.0000000000	0.7853981634	0.9424777961	1.3089969390	0.0000000000	0.0000000000	0.0000000000
2.4479582971	0.0000000000	0.7853981634	0.9424777961	1.3089969390	0.0000000000	0.0000000000	0.0000000000
2.4521285838	0.0000000000	0.7853981634	0.9424777961	1.3089969390	0.0000000000	0.0000000000	0.0000000000
2.4562988705	0.0000000000	0.7853981634	0.9424777961	1.3089969390	0.0000000000	0.0000000000	0.0000000000
2.4604691573	0.0000000000	0.7853981634	0.9424777961	1.3089969390	0.0000000000	0.0000000000	0.0000000000
2.4646394440	0.0000000000	0.7853981634	0.9424777961	1.3089969390	0.0000000000	0.0000000000	0.0000000000
2.4688097307	0.0000000000	0.7853981634	0.9424777961	1.3089969390	0.0000000000	0.0000000000	0.0000000000
2.4729800174	0.0000000000	0.7853981634	0.9424777961	1.3089969390	0.0000000000	0.0000000000	0.0000000000
2.4771503041	0.0000000000	0.7853981634	0.9424777961	1.3089969390	0.0000000000	0.0000000000	0.0000000000
2.4813205908	0.0000000000	0.7853981634	0.9424777961	1.3089969390	0.0000000000	0.0000000000	0.0000000000
2.4854908775	0.0000000000	0.7853981634	0.9424777961	1.3089969390	0.0000000000	0.0000000000	0.0000000000
2.4896611642	0.0000000000	0.7853981634	0.9424777961	1.3089969390	0.0000000000	0.0000000000	0.0000000000
2.4938314509	0.0000000000	0.7853981634	0.9424777961	1.3089969390	0.0000000000	0.0000000000	0.0000000000
2.4980017376	0.0000000000	0.7853981634	0.9424777961	1.3089969390	0.0000000000	0.0000000000	0.0000000000
2.5021720243	0.0000000000	0.7853981634	0.9424777961	1.3089969390	0.0000000000	0.0000000000	0.0000000000
2.5063423110	0.0000000000	0.7853981634	0.9424777961	1.3089969390	0.0000000000	0.0000000000	0.0000000000
2.5105125977	0.0000000000	0.7853981634	0.9424777961	1.3089969390	0.0000000000	0.0000000000	0.0000000000
2.5146828844	0.0000000000	0.7853981634	0.9424777961	1.3089969390	0.0000000000	0.0000000000	0.0000000000
2.5188531712	0.0000000000	0.7853981634	0.9424777961	1.3089969390	0.0000000000	0.0000000000	0.0000000000
2.5230234579	0.0000000000	0.7853981634	0.9424777961	1.3089969390	0.0000000000	0.0000000000	0.0000000000
2.5271937446	0.0000000000	0.7853981634	0.9424777961	1.3089969390	0.0000000000	0.0000000000	0.0000000000
2.5313640313	0.0000000000	0.7853981634	0.9424777961	1.3089969390	0.0000000000	0.0000000000	0.0000000000
2.5355343180	0.0000000000	0.7853981634	0.9424777961	1.3089969390	0.0000000000	0.0000000000	0.0000000000
2.5397046047	0.0000000000	0.7853981634	0.9424777961	1.3089969390	0.0000000000	0.0000000000	0.0000000000
2.5438748914	0.0000000000	0.7853981634	0.9424777961	1.3089969390	0.0000000000	0.0000000000	0.0000000000
2.5480451781	0.0000000000	0.7853981634	0.9424777961	1.3089969390	0.0000000000	0.0000000000	0.0000000000
2.5522154648	0.0000000000	0.7853981634	0.9424777961	1.3089969390	0.0000000000	0.0000000000	0.0000000000
2.5563857515	0.0000000000	0.7853981634	0.9424777961	1.3089969390	0.0000000000	0.0000000000	0.0000000000
2.5605560382	0.0000000000	0.7853981634	0.9424777961	1.3089969390	0.0000000000	0.0000000000	0.0000000000
2.5647263249	0.0000000000	0.7853981634	0.9424777961	1.3089969390	0.0000000000	0.0000000000	0.0000000000
2.5688966116	0.0000000000	0.7853981634	0.9424777961	1.3089969390	0.0000000000	0.0000000000	0.0000000000
2.5730668983	0.0000000000	0.7853981634	0.9424777961	1.3089969390	0.0000000000	0.0000000000	0.0000000000
2.5772371851	0.0000000000	0.7853981634	0.9424777961	1.3089969390	0.0000000000	0.0000000000	0.0000000000
2.5814074718	0.0000000000	0.7853981634	0.9424777961	1.3089969390	0.0000000000	0.0000000000	0.0000000000
2.5855777585	0.0000000000	0.7853981634	0.9424777961	1.3089969390	0.0000000000	0.0000000000	0.0000000000
2.5897480452	0.0000000000	0.7853981634	0.9424777961	1.3089969390	0.0000000000	0.0000000000	0.0000000000
2.5939183319	0.0000000000	0.7853981634	0.9424777961	1.3089969390	0.0000000000	0.0000000000	0.0000000000
2.5980886186	0.0000000000	0.7853981634	0.9424777961	1.3089969390	0.0000000000	0.0000000000	0.0000000000
2.6022589053	0.0000000000	0.7853981634	0.9424777961	1.3089969390	0.0000000000	0.0000000000	0.0000000000
2.6064291920	0.0000000000	0.7853981634	0.9424777961	1.3089969390	0.0000000000	0.0000000000	0.0000000000
2.6105994787	0.0000000000	0.7853981634	0.9424777961	1.3089969390	0.0000000000	0.0000000000	0.0000000000
2.6147697654	0.0000000000	0.7853981634	0.9424777961	1.3089969390	0.0000000000	0.0000000000	0.0000000000
2.6189400521	0.0000000000	0.7853981634	0.9424777961	1.3089969390	0.0000000000	0.0000000000	0.0000000000
2.6231103388	0.0000000000	0.7853981634	0.9424777961	1.3089969390	0.0000000000	0.0000000000	0.0000000000
2.6272806255	0.0000000000	0.7853981634	0.9424777961	1.3089969390	0.0000000000	0.0000000000	0.0000000000
2.6314509123	0.0000000000	0.7853981634	0.9424777961	1.3089969390	0.0000000000	0.0000000000	0.0000000000
2.6356211990	0.0000000000	0.7853981634	0.9424777961	1.3089969390	0.0000000000	0.0000000000	0.0000000000
2.6397914857	0.0000000000	0.7853981634	0.9424777961	1.3089969390	0.0000000000	0.0000000000	0.0000000000
2.6439617724	0.0000000000	0.7853981634	0.9424777961	1.3089969390	0.0000000000	0.0000000000	0.0000000000
2.6481320591	0.0000000000	0.7853981634	0.9424777961	1.3089969390	0.0000000000	0.0000000000	0.0000000000
2.6523023458	0.0000000000	0.7853981634	0.9424777961	1.3089969390	0.0000000000	0.0000000000	0.0000000000
2.6564726325	0.0000000000	0.7853966294	0.9424722735	1.3089984730	0.0000000000	0.0000000000	0.0000000000
2.6606429192	0.0000000000	0.7853860461	0.9424341740	1.3090090563	0.0000000000	0.0000000000	0.0000000000
2.6648132059	0.0000000000	0.7853577875	0.9423324429	1.3090373149	0.0000000000	0.0000000000	0.0000000000
2.6689834926	0.0000000000	0.7853036814	0.9421376608	1.3090914210	0.0000000000	0.0000000000	0.0000000000
2.6731537793	0.0000000000	0.7852160020	0.9418220150	1.3091791004	0.0000000000	0.0000000000	0.0000000000
2.6773240660	0.0000000000	0.7850874620	0.9413592709	1.3093076404	0.0000000000	0.0000000000	0.0000000000
2.6814943527	0.0000000000	0.7849112044	0.9407247436	1.3094838980	0.0000000000	0.0000000000	0.0000000000
2.6856646394	0.0000000000	0.7846807949	0.9398952696	1.3097143075	0.0000000000	0.0000000000	0.0000000000
2.6898349262	0.0000000000	0.7843902140	0.9388491782	1.3100048884	0.0000000000	0.0000000000	0.0000000000
2.6940052129	0.0000000000	0.7840338488	0.9375662634	1.3103612536	0.0000000000	0.0000000000	0.0000000000
2.6981754996	0.0000000000	0.7836064853	0.9360277550	1.3107886171	0.0000000000	0.0000000000	0.0000000000
2.7023457863	0.0000000000	0.7831033007	0.9342162904	1.3112918017	0.0000000000	0.0000000000	0.0000000000
2.7065160730	0.0000000000	0.7825198551	0.9321158863	1.3118752473	0.0000000000	0.0000000000	0.0000000000
2.7106863597	0.0000000000	0.7818520839	0.9297119098	1.3125430185	0.0000000000	0.0000000000	0.0000000000
2.7148566464	0.0000000000	0.7810962897	0.9269910506	1.3132988127	0.0000000000	0.0000000000	0.0000000000
2.7190269331	0.0000000000	0.7802491345	0.9239412921	1.3141459679	0.0000000000	0.0000000000	0.0000000000
2.7231972198	0.0000000000	0.7793076320	0.9205518832	1.3150874704	0.0000000000	0.0000000000	0.0000000000
2.7273675065	0.0000000000	0.7782691393	0.9168133095	1.3161259631	0.0000000000	0.0000000000	0.0000000000
2.7315377932	0.0000000000	0.7771313493	0.9127172654	1.3172637531	0.0000000000	0.0000000000	0.0000000000
2.7357080799	0.0000000000	0.7758922826	0.9082566253	1.3185028198	0.0000000000	0.0000000000	0.0000000000
2.7398783666	0.0000000000	0.7745502799	0.9034254153	1.3198448225	0.0000000000	0.0000000000	0.0000000000
2.7440486533	0.0000000000	0.7731039936	0.8982187847	1.3212911088	0.0000000000	0.0000000000	0.0000000000
2.7482189401	0.0000000000	0.7715523805	0.8926329775	1.3228427219	0.0000000000	0.0000000000	0.0000000000
2.7523892268	0.0000000000	0.7698946934	0.8866653042	1.3245004090	0.0000000000	0.0000000000	0.0000000000
2.7565595135	0.0000000000	0.7681304737	0.8803141131	1.3262646287	0.0000000000	0.0000000000	0.0000000000
